HIERARCHY
ROOT Hips
{
	OFFSET -14.64140 90.27770 -84.91600
	CHANNELS 6 Xposition Yposition Zposition Zrotation Xrotation Yrotation
	JOINT Spine
	{
		OFFSET 0.00000 13.20850 -1.60436
		CHANNELS 3 Zrotation Xrotation Yrotation
		JOINT Spine1
		{
			OFFSET 0.00000 8.61716 0.00000
			CHANNELS 3 Zrotation Xrotation Yrotation
			JOINT Spine2
			{
				OFFSET 0.00000 8.61717 0.00000
				CHANNELS 3 Zrotation Xrotation Yrotation
				JOINT Spine3
				{
					OFFSET 0.00000 8.61717 0.00000
					CHANNELS 3 Zrotation Xrotation Yrotation
					JOINT Neck
					{
						OFFSET 0.00000 11.07920 1.10792
						CHANNELS 3 Zrotation Xrotation Yrotation
						JOINT Neck1
						{
							OFFSET 0.00000 7.08032 0.00000
							CHANNELS 3 Zrotation Xrotation Yrotation
							JOINT Head
							{
								OFFSET 0.00000 7.08031 0.00000
								CHANNELS 3 Zrotation Xrotation Yrotation
								End site
								{
									OFFSET 0.00000 0.00000 0.00000
								}
							}
						}
					}
					JOINT RightShoulder
					{
						OFFSET -0.01000 7.91373 5.19711
						CHANNELS 3 Zrotation Xrotation Yrotation
						JOINT RightArm
						{
							OFFSET -18.41580 0.00000 0.00000
							CHANNELS 3 Zrotation Xrotation Yrotation
							JOINT RightForeArm
							{
								OFFSET -29.11090 0.00000 0.00000
								CHANNELS 3 Zrotation Xrotation Yrotation
								JOINT RightHand
								{
									OFFSET -24.65040 0.00000 0.00000
									CHANNELS 3 Zrotation Xrotation Yrotation
									JOINT RightHandThumb1
									{
										OFFSET -5.35114 -0.85590 3.97906
										CHANNELS 3 Zrotation Xrotation Yrotation
										JOINT RightHandThumb2
										{
											OFFSET -4.52789 0.00000 0.00000
											CHANNELS 3 Zrotation Xrotation Yrotation
											JOINT RightHandThumb3
											{
												OFFSET -2.46976 0.00000 0.00000
												CHANNELS 3 Zrotation Xrotation Yrotation
												End site
												{
													OFFSET 0.00000 0.00000 0.00000
												}
											}
										}
									}
									JOINT RightHandIndex1
									{
										OFFSET -14.26970 0.00000 2.88139
										CHANNELS 3 Zrotation Xrotation Yrotation
										JOINT RightHandIndex2
										{
											OFFSET -5.48836 0.00000 0.00000
											CHANNELS 3 Zrotation Xrotation Yrotation
											JOINT RightHandIndex3
											{
												OFFSET -3.01859 0.00000 0.00000
												CHANNELS 3 Zrotation Xrotation Yrotation
												End site
												{
													OFFSET 0.00000 0.00000 0.00000
												}
											}
										}
									}
									JOINT RightHandMiddle1
									{
										OFFSET -14.26970 0.00000 -0.09147
										CHANNELS 3 Zrotation Xrotation Yrotation
										JOINT RightHandMiddle2
										{
											OFFSET -6.17441 0.00000 0.00000
											CHANNELS 3 Zrotation Xrotation Yrotation
											JOINT RightHandMiddle3
											{
												OFFSET -3.56743 0.00000 0.00000
												CHANNELS 3 Zrotation Xrotation Yrotation
												End site
												{
													OFFSET 0.00000 0.00000 0.00000
												}
											}
										}
									}
									JOINT RightHandRing1
									{
										OFFSET -12.69180 0.00000 -3.06433
										CHANNELS 3 Zrotation Xrotation Yrotation
										JOINT RightHandRing2
										{
											OFFSET -5.62556 0.00000 0.00000
											CHANNELS 3 Zrotation Xrotation Yrotation
											JOINT RightHandRing3
											{
												OFFSET -3.56744 0.00000 0.00000
												CHANNELS 3 Zrotation Xrotation Yrotation
												End site
												{
													OFFSET 0.00000 0.00000 0.00000
												}
											}
										}
									}
									JOINT RightHandPinky1
									{
										OFFSET -11.11390 0.00000 -6.03719
										CHANNELS 3 Zrotation Xrotation Yrotation
										JOINT RightHandPinky2
										{
											OFFSET -4.52789 0.00000 0.00000
											CHANNELS 3 Zrotation Xrotation Yrotation
											JOINT RightHandPinky3
											{
												OFFSET -2.46976 0.00000 0.00000
												CHANNELS 3 Zrotation Xrotation Yrotation
												End site
												{
													OFFSET 0.00000 0.00000 0.00000
												}
											}
										}
									}
								}
							}
						}
					}
					JOINT LeftShoulder
					{
						OFFSET 0.01000 7.91373 5.19711
						CHANNELS 3 Zrotation Xrotation Yrotation
						JOINT LeftArm
						{
							OFFSET 18.41580 0.00000 0.00000
							CHANNELS 3 Zrotation Xrotation Yrotation
							JOINT LeftForeArm
							{
								OFFSET 29.11090 0.00000 0.00000
								CHANNELS 3 Zrotation Xrotation Yrotation
								JOINT LeftHand
								{
									OFFSET 24.65040 0.00000 0.00000
									CHANNELS 3 Zrotation Xrotation Yrotation
									JOINT LeftHandThumb1
									{
										OFFSET 5.35114 -0.85590 3.97906
										CHANNELS 3 Zrotation Xrotation Yrotation
										JOINT LeftHandThumb2
										{
											OFFSET 4.52789 0.00000 0.00000
											CHANNELS 3 Zrotation Xrotation Yrotation
											JOINT LeftHandThumb3
											{
												OFFSET 2.46977 0.00000 0.00000
												CHANNELS 3 Zrotation Xrotation Yrotation
												End site
												{
													OFFSET 0.00000 0.00000 0.00000
												}
											}
										}
									}
									JOINT LeftHandIndex1
									{
										OFFSET 14.26970 0.00000 2.88139
										CHANNELS 3 Zrotation Xrotation Yrotation
										JOINT LeftHandIndex2
										{
											OFFSET 5.48836 0.00000 0.00000
											CHANNELS 3 Zrotation Xrotation Yrotation
											JOINT LeftHandIndex3
											{
												OFFSET 3.01859 0.00000 0.00000
												CHANNELS 3 Zrotation Xrotation Yrotation
												End site
												{
													OFFSET 0.00000 0.00000 0.00000
												}
											}
										}
									}
									JOINT LeftHandMiddle1
									{
										OFFSET 14.26970 0.00000 -0.09147
										CHANNELS 3 Zrotation Xrotation Yrotation
										JOINT LeftHandMiddle2
										{
											OFFSET 6.17440 0.00000 0.00000
											CHANNELS 3 Zrotation Xrotation Yrotation
											JOINT LeftHandMiddle3
											{
												OFFSET 3.56744 0.00000 0.00000
												CHANNELS 3 Zrotation Xrotation Yrotation
												End site
												{
													OFFSET 0.00000 0.00000 0.00000
												}
											}
										}
									}
									JOINT LeftHandRing1
									{
										OFFSET 12.69180 0.00000 -3.06433
										CHANNELS 3 Zrotation Xrotation Yrotation
										JOINT LeftHandRing2
										{
											OFFSET 5.62556 0.00000 0.00000
											CHANNELS 3 Zrotation Xrotation Yrotation
											JOINT LeftHandRing3
											{
												OFFSET 3.56744 0.00000 0.00000
												CHANNELS 3 Zrotation Xrotation Yrotation
												End site
												{
													OFFSET 0.00000 0.00000 0.00000
												}
											}
										}
									}
									JOINT LeftHandPinky1
									{
										OFFSET 11.11390 0.00000 -6.03719
										CHANNELS 3 Zrotation Xrotation Yrotation
										JOINT LeftHandPinky2
										{
											OFFSET 4.52789 0.00000 0.00000
											CHANNELS 3 Zrotation Xrotation Yrotation
											JOINT LeftHandPinky3
											{
												OFFSET 2.46976 0.00000 0.00000
												CHANNELS 3 Zrotation Xrotation Yrotation
												End site
												{
													OFFSET 0.00000 0.00000 0.00000
												}
											}
										}
									}
								}
							}
						}
					}
					JOINT pCube4
					{
						OFFSET 0.00000 10.91090 1.10792
						CHANNELS 3 Zrotation Xrotation Yrotation
						End site
						{
							OFFSET 0.00000 0.00000 0.00000
						}
					}
				}
			}
		}
	}
	JOINT RightUpLeg
	{
		OFFSET -9.98441 0.00000 0.00000
		CHANNELS 3 Zrotation Xrotation Yrotation
		JOINT RightLeg
		{
			OFFSET 0.00000 -42.11790 0.00000
			CHANNELS 3 Zrotation Xrotation Yrotation
			JOINT RightFoot
			{
				OFFSET 0.00000 -45.00020 -0.00001
				CHANNELS 3 Zrotation Xrotation Yrotation
				JOINT RightForeFoot
				{
					OFFSET 0.00000 -3.74820 0.00000
					CHANNELS 3 Zrotation Xrotation Yrotation
					JOINT RightToeBase
					{
						OFFSET 0.00000 0.06325 14.43120
						CHANNELS 3 Zrotation Xrotation Yrotation
						End site
						{
							OFFSET 0.00000 0.00000 0.00000
						}
					}
				}
			}
		}
	}
	JOINT LeftUpLeg
	{
		OFFSET 9.98441 0.00000 0.00000
		CHANNELS 3 Zrotation Xrotation Yrotation
		JOINT LeftLeg
		{
			OFFSET 0.00000 -42.11800 0.00000
			CHANNELS 3 Zrotation Xrotation Yrotation
			JOINT LeftFoot
			{
				OFFSET 0.00000 -45.00070 0.00000
				CHANNELS 3 Zrotation Xrotation Yrotation
				JOINT LeftForeFoot
				{
					OFFSET 0.00000 -3.74824 0.00000
					CHANNELS 3 Zrotation Xrotation Yrotation
					JOINT LeftToeBase
					{
						OFFSET 0.00000 0.06325 14.43110
						CHANNELS 3 Zrotation Xrotation Yrotation
						End site
						{
							OFFSET 0.00000 0.00000 0.00000
						}
					}
				}
			}
		}
	}
}
MOTION
Frames: 4
Frame Time: 0.050000
-0.01962595834818226 0.008367493728688712 -0.010509709630164494 0.043490795435866175 0.016727347702403986 0.0327297563353104 -4.725655011550487 7.434129683521407 -0.5175037617172535 -0.6669557625472778 2.8728207298296042 0.34573478442000916 -0.930904795880047 0.018806040546505674 -1.2410729087848036 -1.3166872606628455 0.2891967080935511 -1.0291839797292142 -1.0449087493203986 8.734805958035828 2.3719346409873023 -0.13059109952712503 -0.9029052737545223 2.2839409427617867 -0.6958583355743954 -14.790548038931165 0.26428987855488645 2.994658456054809 0.07135350536657568 -8.14522640223801 68.61734412534292 4.228188443471722 42.10196191267682 45.659453984776256 13.540402531918643 101.82638386627379 28.960941098621756 0.46088910160272967 -15.233859678087109 4.557786621444279 -0.12656028964307203 -1.5979648130857835 0.048529527068002 0.009118297188418067 -56.25884215874539 -0.00998253851477697 0.007338764617444003 -56.23072497108484 -38.752515393516596 -0.0047938087409090425 0.04974590915372934 -0.03457294472179949 0.03622178897822118 0.0487029924828367 0.0209380548604102 -0.012160896678168753 0.03243076376768509 -36.708598895941144 0.002557116672426329 -0.03434586771388325 0.01997622585166788 -0.014740108353901353 -0.0010145708013686834 -0.016560068452147195 0.018594033447954187 -0.009858321605464461 -19.742179006983232 -0.008561698511962899 -0.01329609060415141 0.03673508373657507 -0.007461499577505412 -0.0031551987387053236 0.00013511544815532594 -0.010874153476592274 -0.03217714403609807 24.086698957818196 -0.048865421882564354 0.023537718794180266 28.8733261018026 0.033339597190178843 -0.011609130333552903 28.90534677429217 0.002929319300067377 -0.040930053619605646 0.20503676031636703 0.5576000960513338 7.608333455488485 -62.955125566021984 18.862246948287556 -39.61273896859756 -57.65863040614621 15.990360234717757 -109.94973218736894 -25.785908901421625 -7.460868640082188 5.313326035256674 -0.42541368819944386 0.06079857541375625 -8.141812525695409 0.026933304854844953 0.04987505155463147 44.529220628523156 -0.040425244916513677 0.03774698131021045 44.53728505943395 12.433088955734219 -0.03236832759190667 -0.031593382240255284 0.02035349765449356 0.041207604775111664 -0.022837705402203923 -0.0038165955716028183 -0.025610184552028688 0.04455526873955461 11.075163724972597 0.04310159711780488 -0.03606533561606697 0.02535467271835756 -0.034792041138772885 -0.045144375672123496 0.002471167892931527 -0.02341299948209743 0.035144774545527925 4.7519370015164 0.02818397615664991 0.004011546038552548 -0.01841323222853731 0.04628599747896439 0.022239736534286347 -0.004487412637478902 -0.00869088035468397 -0.019910006389803697 -5.579827594735148 0.004469229528791977 -0.03435392491424559 -6.729354900617952 -0.030866375486118116 0.03718258569369183 -6.700084191435162 0.030689048999518072 0.017023339227004212 -0.04988129205352841 0.03311621737534624 0.0036171786768823353 8.028609333695599 3.5314643417778657 -19.179339914138335 0.02841551371706804 10.408058578518533 0.029604430656039005 -5.588833644109049 -15.616051603385289 3.2247606139769562 -0.005495866020508932 -0.045752051706530954 0.0011447648009540504 0.0419078906111316 4.710890815870258 0.028364430373705396 12.459303749911227 -8.241625630690404 6.838930297171553 -0.028875180682382293 46.3825958356699 0.02667346029009348 -4.329245882018882 -14.78474027918129 -3.822490198753463 -0.012205439580501515 0.03452916647750547 0.011743923529997681 -0.010908016098049667 -10.779226766787009 -0.013938273307257774 
-0.02603750490619568 -0.03966302818946282 0.03888576473798148 -0.0011199548288097654 -0.016515016735932916 0.02629865453640448 -4.869322321346495 7.437261205186959 -0.46025833713307224 -0.7357946195995144 2.871112228730959 0.4053021556469546 -0.8913772068893031 -0.06858143102477343 -1.3034228358575426 -1.3666653355856575 0.276455008743673 -1.0035474861715956 -0.9713929022765728 8.841295891774502 2.4211367939111175 -0.12924483789728738 -0.7602437631162089 2.4062019028636907 -0.6761627180228358 -14.644456798934542 0.244120474463617 2.4555711757842857 0.2777790688452756 -8.190264354839124 67.79872877187046 0.8305421006727278 44.900616216330185 43.53356596572465 12.806233848940838 102.10448084210633 29.356485216603605 0.5065994154065884 -15.05305206764923 4.5408334539575215 -0.08819398871381179 -1.5438417423464388 0.009949413082184144 0.029135316567129383 -56.217944956403 -0.005484878314297581 -0.024530862103523537 -56.23686886595227 -38.78855036156668 0.03073880612490804 -0.030702592008336083 0.024620847065962084 -0.006242128362625712 0.01265569268000032 -0.025155754074836972 -0.036889277928080895 -0.030094573985876706 -36.67588376850438 -0.02241734487959185 0.025454242843504813 -0.0004344191040567746 -0.0030999287760355896 -0.023472641791204087 -0.016658592989783307 0.000916115607730555 -0.018775856698115687 -19.735762770866742 0.021341003237080075 -0.046126653018085544 0.024963920746530213 0.0007015495514504619 0.012497566753744393 0.018794618277493926 -0.025573667254565172 0.0007336542120161465 24.047137509525935 0.04448283179040474 -0.014783666635956684 28.914432880001343 0.0479746524930988 -0.04418752168316957 28.872072120320755 -0.017254035942315726 0.023037595560525093 0.4819874639749927 0.6118723996794032 7.567399095124517 -62.222154759431895 18.447020885643454 -41.31593296827682 -51.49516531508499 14.952270302344047 -108.10383013204142 -24.765308045002687 -6.739074390883881 4.576376136525041 -0.4557061824226376 0.07846644751158698 -8.141581910614923 0.0008314819565727079 0.024645870261566793 44.612506637572935 0.040424423398569206 -0.019532037033540426 44.552318250162365 12.412839960613402 0.016444494953098843 0.012029193573983863 0.019576254813632198 -0.01719064826143345 -0.04536010320016657 -0.04643622601135915 -0.005845330168375429 -0.02480781482170042 11.149037924245492 0.028770114726934498 0.0051679612626727425 0.03483955678893261 0.007419764069115289 0.031544577422580454 -0.010205927101555635 -0.0435365058267362 -0.048488298873205285 4.761127715362288 0.002510475011696389 0.040237534731091894 0.035019050786440985 0.0016744871570555462 -0.034955193930343534 0.027704981986049284 -0.04150022766887449 -0.011967585946254607 -5.59920074530122 -0.018907933932331197 0.04486833589378491 -6.762260650572881 0.02087944564898488 -0.017056455522863403 -6.753584193073562 -0.030705710810067833 -0.03748317069835898 -0.014712438570340528 -0.011527628375639995 0.010834104530340087 8.012215954558192 3.445686992967378 -19.182891906161725 0.03445682456010463 10.364504862275059 -0.008385734077276826 -5.638086946813949 -15.6444352732154 3.150523674531509 -0.009042767867607661 -0.049805977940149404 -0.023678591444671892 -0.0312625129838441 4.664976977617703 -0.0012031485733062037 12.41557918266992 -8.281782072347415 6.860417741728695 0.0064530526985432475 46.41183335653507 0.01208805973162292 -4.292110326283946 -14.730060773408924 -3.8569507791950017 -0.01807239854736339 0.029694561697866863 0.005744104802453579 0.016968524160347432 -10.738981828692816 0.025909655681654004 
-0.020817420740858517 -0.0297891998866265 -0.009729617110265336 0.03217284916164275 -0.04154214984332208 0.026670722465526597 -4.975122539284283 7.535877775773972 -0.47167698623909277 -0.7361135080486183 2.835713823799694 0.4021574330990049 -0.9196724490585214 -0.07180144261166643 -1.3252344852402942 -1.3935681894788503 0.23655354869535425 -0.9966824396685589 -0.8489829129095859 8.926546241923592 2.217459968238958 -0.11146151680801039 -0.7042343472912274 1.945204871918005 -0.5881709685545577 -14.513282652609881 0.2814441501745079 2.292673930752162 0.3295369593255592 -8.233598282858173 66.6070153004312 -1.9184019034343887 46.071880849634496 41.298023073336 12.444992586913935 102.78298396082243 29.93109938005287 0.5101142222715034 -15.025308040816949 4.574794322551808 -0.12695744276515838 -1.6244763785154506 -0.014510976724815541 -0.006224975224269827 -56.26636755221416 0.0075416150070065115 -0.02347700976299416 -56.24006355468367 -38.74038384423469 -0.04411146277333748 -0.009187616315156959 -0.021119370045049227 0.004690506590068181 -0.010169103830303613 0.021296195458361037 -0.007125288197714095 0.01314855454954498 -36.73410688946335 -0.035059374825435446 -0.0033698671445435958 -0.03123647031308038 -0.010060435339883921 0.03310446429241737 0.011752752941512823 0.0038122611394182915 -0.004018622454814042 -19.759747036210598 0.02883130440650346 0.0408868953604478 -0.0005076830027424948 -0.009823827776333926 -0.020359529911623004 0.016706670920689205 0.009455553119682802 -0.018586502018656272 24.033073340321394 0.0343086741513349 0.03833923834652498 28.86196052116614 0.04682930678818949 0.02695498844642565 28.85649907592772 -0.014309632540639786 0.045058083111971015 0.2308503169372705 0.5587272444427781 7.5829617235935185 -61.08648342743072 18.94020955613452 -41.304794457019 -43.919915998698286 13.737737799065764 -106.55117497328766 -24.06384696102811 -6.299195549448824 4.199171327632483 -0.45086297918637913 0.07932615931483723 -8.094580906752226 -0.0006836496550370861 0.043719808238768455 44.577843042415395 -0.03223621925814602 0.0022416641943852145 44.561443467720345 12.452020361262354 -0.004652375984836921 -0.01668030712201696 0.027478855016256826 -0.006005057409927293 0.02928173145204183 -0.03322554590751062 -0.028997436243645723 -0.042363700890591285 11.090371594124196 0.018702719523824473 -0.018929123824352048 0.04700926828088002 -0.02056064970037147 -0.01937021772301291 -0.006461383405658537 0.03155396901472761 -0.03700389436084142 4.78312813442953 -0.009370048085967728 0.0033006929051778307 -0.011782296718934543 0.018297376561341915 -0.03346930852719267 -0.01798384784288579 0.036820358966127786 0.009853767344462938 -5.624778570090687 0.007371091578549084 0.015352004305926703 -6.733648158553367 0.015696892523705448 -0.011886399086343657 -6.67584937491177 -0.04502525205925397 -0.029574439424577284 -0.0027021380919846493 0.021142412524072552 0.045206824903048365 8.070075255499344 3.518632958306985 -19.182909561479818 0.001912339203094906 10.436913402679085 -0.005661136772780899 -5.6561586254407565 -15.708386736529516 3.2107194059405457 0.04363220194127594 -0.045564494883159196 0.006592870235939039 -0.00036506336689810456 4.676723412518327 -0.028857251448890373 12.471575778941817 -8.248435259722829 6.8607274676205625 -0.0024371346220012887 46.37050365093858 -0.014662050303825627 -4.358902575828276 -14.717617008813827 -3.855668060371124 -0.005674592161474008 -0.02428017038120789 -0.02256212541843464 0.03047240282997737 -10.712969768790728 -0.025378465800775865 
0.03387964667506601 0.0033993078558345285 0.02022650970952189 0.030467530135891707 -0.023375862339304863 -0.014477684413638853 -4.999739117991631 7.613727250408764 -0.4953494156785646 -0.7551570652006414 2.8278852815252953 0.37575579761014194 -1.0290335679557097 -0.07739423825310396 -1.3460681091734543 -1.3217460151451779 0.2850253755803913 -1.0617588719812145 -0.6983051624210492 8.944198242343425 1.9309091130752747 -0.0914729922585947 -0.6385038225830318 1.1899845923990393 -0.513603853301331 -14.383312337652987 0.201856743040928 2.230263984280163 0.3771284962974604 -8.366852353198254 65.54653767851434 -4.047212868803677 46.381978731841514 37.50086116129466 11.42586147054128 103.60074465525739 29.75605651032133 0.4381612919659918 -14.613771053583996 4.47896233067488 -0.09831352614290645 -1.5859390761259224 0.008733709651944834 -0.03357832141135405 -56.214559224993195 -0.04286460630198612 0.0072080968678476035 -56.204414891064516 -38.74947806366526 -0.04154360501313046 0.016609046225313197 0.026833938450017483 0.04998729348136704 -0.0024250612483888074 -0.03464096059307348 -0.007260963483237629 0.016863626454534774 -36.64550894475864 -0.024209513629075856 0.020811292699088726 0.037139067028701664 0.01363551826765998 -0.0314516464957099 0.0004794677847231524 0.01623831418810106 0.026378011314393 -19.767420949230456 -0.015300977816597734 0.02674292913399798 -0.011454940667827975 0.018257571892791986 0.005710714506156302 -0.03120926409948518 0.03977998899765114 0.01881527429135089 24.031472890660286 -0.014788661402016567 -0.045082645085957836 28.824037231026292 -0.004382703341949795 0.009281622520154591 28.880801955454274 0.03624661155933818 -0.048702959336355406 -0.1065960674877365 0.4480336174298995 7.5903432114878715 -59.908726664084334 20.296358728976397 -40.972958474944654 -32.88066302339147 10.731269523290772 -104.64991522088708 -22.29697629748469 -5.761069240736222 3.6042569125787147 -0.46302662979495435 0.11394688523152874 -8.094992722888573 0.0404234515101311 0.020030532805371894 44.58387894565857 0.013132804460255512 -0.04687220783440344 44.55703359483319 12.484154507904817 0.005994349291065809 0.0471379603694982 0.024616069515261206 -0.04437699900293802 -0.013806931262975138 -0.014655898959527708 -0.011526358903066788 0.03423559389518003 11.11901434186207 0.0396601441918704 0.01606954878763573 -0.00816924999306294 0.01466542648801972 0.04444460102135629 -0.028103853152280357 -0.02494855920081041 -0.04740955378265019 4.790355521002673 -0.009294374689661556 0.041092160682111134 -0.04465009404019547 -0.016315945517795884 -0.02524968456954711 0.035813553127707835 -0.03619288202104306 -0.003274963606934652 -5.597216254515948 -0.005959475650328611 0.009095015267169514 -6.709691647021961 -0.016287762807467777 -0.04381524018900525 -6.703590909722238 -0.02991302817308648 -0.015114459467401685 0.018517434344417272 -0.015571657516047619 -0.004827896493405792 8.029279983074703 3.524892184560062 -19.212023283641066 0.04886161448261742 10.383853339898499 -0.013236799946349794 -5.599304384575585 -15.68634191308861 3.2114835936690294 0.02094824623501095 0.004825412927133948 -0.022134908720176295 -0.025861168406965278 4.673913352087875 0.01904774382518008 12.507245369841373 -8.247321886267402 6.908597156699348 0.00769454104146351 46.39555105084526 -0.037096788816946114 -4.2999026518065895 -14.719940295504857 -3.838877217353557 -0.009298837250734476 0.03199247680497398 0.008296308289067765 0.009931710377592143 -10.721638391179662 0.02471864192548579 
